<svg xmlns="http://www.w3.org/2000/svg" viewBox="0 0 160 160"><defs><radialGradient id="fur" cx=".35" cy=".3"><stop stop-color="#f5f3d3"/><stop offset="1" stop-color="#a5c391"/></radialGradient></defs><ellipse cx="81" cy="138" rx="46" ry="10" fill="#355b41" opacity=".12"/><path d="M47 72C23 45 26 10 44 15c16 3 23 27 21 50m29 0c-1-24 12-53 28-49 21 6 2 47-15 59" fill="#adc794" stroke="#769575" stroke-width="3"/><path d="M46 61c-10-17-12-34-6-35 7-1 14 16 15 34m46 1c3-16 13-35 19-32 5 3-3 21-13 34" fill="#d8e4b7"/><ellipse cx="80" cy="109" rx="38" ry="31" fill="url(#fur)"/><path d="M39 84c-4-28 15-42 41-42s48 19 43 45c-3 23-23 34-42 34-25 0-40-12-42-37" fill="url(#fur)" stroke="#769575" stroke-width="2"/><path d="M62 49c-3-14 5-21 12-19 2 12 0 15 0 15 9-13 19-14 25-7-5 11-16 16-23 15" fill="#6ea26c"/><ellipse cx="61" cy="84" rx="5" ry="7" fill="#335447"/><ellipse cx="100" cy="84" rx="5" ry="7" fill="#335447"/><circle cx="60" cy="82" r="1.7" fill="#fff"/><circle cx="99" cy="82" r="1.7" fill="#fff"/><ellipse cx="49" cy="95" rx="8" ry="4" fill="#d9a887" opacity=".6"/><ellipse cx="110" cy="95" rx="8" ry="4" fill="#d9a887" opacity=".6"/><path d="m75 96 6 4 6-4m-6 4v5m-9-2c6 6 13 6 18 0" fill="none" stroke="#5e7260" stroke-width="2.4" stroke-linecap="round"/><ellipse cx="55" cy="134" rx="16" ry="9" fill="#b6cda0"/><ellipse cx="102" cy="134" rx="16" ry="9" fill="#b6cda0"/><ellipse cx="125" cy="115" rx="13" ry="10" fill="#d8e3bd"/></svg>
