<svg xmlns="http://www.w3.org/2000/svg" viewBox="0 0 120 120"><ellipse cx="60" cy="103" rx="44" ry="10" fill="#365643" opacity=".15"/><path d="m18 46 51-19 35 22-50 22z" fill="#dabb78" stroke="#685238" stroke-width="3" stroke-linejoin="round"/><path d="m18 46 36 25v34L18 80z" fill="#aa794b" stroke="#685238" stroke-width="3"/><path d="m54 71 50-22v34l-50 22z" fill="#8d6544" stroke="#685238" stroke-width="3"/><path d="m63 76 32-14v16L63 92z" fill="#354539"/><path d="m35 40 35 22m-19-28 35 22M29 55v30m12-23v31m25-27v32m17-39v30m15-37v31" stroke="#e6c78a" stroke-width="6"/><path d="m18 76 36 26 50-23M19 46l35 25 49-23" fill="none" stroke="#b79059" stroke-width="7" stroke-linejoin="round"/><path d="m23 42 47-18 34 21" fill="none" stroke="#f0d497" stroke-width="6" stroke-linecap="round"/><circle cx="73" cy="87" r="5" fill="#e7ba68"/><circle cx="72" cy="85" r="1" fill="#a77845"/></svg>
