<svg xmlns="http://www.w3.org/2000/svg" viewBox="0 0 417.79 183" role="img"><title>Geo Pets World</title><path d="M363.0212201997638 -14Q267.5158086642623 -14 195.80428103357553 28.774729255586863Q124.09275340288877 71.54945851117373 84.27972421422601 153.09519406408072Q44.46669502556324 234.6409296169877 44.46669502556324 352.12187322974205Q44.46669502556324 439.0582005158067 69.92403145134449 509.772050883621Q95.38136787712574 580.4859012514353 141.58305514976382 631.3766584321856Q187.7847424224019 682.267415612936 250.89716577902436 709.8130901306868Q314.0095891356468 737.3587646484375 389.0082937926054 737.3587646484375Q451.5731061398983 737.3587646484375 496.5883617140353 714.5832824707031Q541.6036172881722 691.8078002929688 570.5577186644077 663.2720947265625L582.6921995207667 738.5587158203125H607.8512089625001L651.7412033900619 498.226969525218L622.5271067842841 491.8146636262536Q598.0995961427689 555.2192794680595 564.937089946121 603.0651015415788Q531.7745837494731 650.910923615098 488.9670681320131 678.1445324607193Q446.15955251455307 705.3781413063407 392.0648934170604 705.3781413063407Q347.7340286374092 705.3781413063407 313.2466324903071 683.7179918587208Q278.759236343205 662.0578424111009 255.09312925860286 619.0145344734192Q231.42702217400074 575.9712265357375 219.22717956081033 511.9988004490733Q207.02733694761992 448.0263743624091 207.02733694761992 363.3361336514354Q207.02733694761992 280.69582668691874 221.20509503781796 218.43855982273817Q235.382853128016 156.1812929585576 260.5375738479197 114.05103033035994Q285.6922945678234 71.92076770216227 320.20259250327945 50.8279197178781Q354.7128904387355 29.73507173359394 394.8222586363554 29.73507173359394Q420.6858720853925 29.73507173359394 443.9510969556868 34.97922596335411Q467.21632182598114 40.22338019311428 487.1831729337573 50.48954439908266Q507.15002404153347 60.75570860505104 521.2170338407159 76.44541267305613V266.67197079211473Q521.2170338407159 293.2308292761445 515.0941564664245 303.50717256218195Q508.97127909213305 313.7835158482194 488.2170338407159 315.2262648716569L439.37496580183506 318.4887974858284V343.15170600265265H734.907761901617V318.4887974858284L692.574062295258 315.2262648716569Q673.3083016201854 313.69496063888073 666.8739415295422 303.0736092366278Q660.439581438899 292.4522578343749 660.439581438899 264.27206844836473V-4.29168039560318H634.141385935247L543.5321309566498 52.619424276053905Q521.0833050683141 32.79213336110115 495.1307021752 17.804439026862383Q469.1780992820859 2.8167446926236153 437.2629385218024 -5.591627653688192Q405.34777776151896 -14 363.0212201997638 -14Z" transform="translate(0.000 109) scale(0.103000 -0.103000)" fill="#24483B"/><path d="M288.17028146982193 -14Q210.95294208079576 -14 155.00990139320493 16.720652293413877Q99.06686070561409 47.441304586827755 69.20035470277071 105.91920655220747Q39.33384869992733 164.39710851758718 39.33384869992733 247.09170220047235Q39.33384869992733 337.9390801116824 73.97916329652071 400.7948404327035Q108.62447789311409 463.6506007537246 168.9133980087936 496.66129891201854Q229.2023181244731 529.6719970703125 305.86671282351017 529.6719970703125Q368.73284231871367 529.6719970703125 415.02099269255996 506.96050345152617Q461.30914306640625 484.24900983273983 486.79789228364825 441.8824768066406Q512.2866415008903 399.5159437805414 512.2866415008903 341.517212100327Q512.2866415008903 325.7478235140443 511.255350779742 310.0363876223564Q510.22406005859375 294.32495173066854 507.60576712340117 277.66694512963295H190.77977155148983Q190.22107613831758 212.29069060087204 207.58735151216388 168.67886040359735Q224.95362688601017 125.06703020632267 258.6458097733557 103.48394756764174Q292.3379926607013 81.9008649289608 339.2112502232194 81.9008649289608Q381.80976739525795 81.9008649289608 419.7563786394894 94.8321190290153Q457.7029898837209 107.7633731290698 498.6467154696584 142.7067325040698L516.1934678405523 126.01184137910604Q480.06232406944036 58.36887663602829 422.296932913363 22.184438318014145Q364.5315417572856 -14 288.17028146982193 -14ZM191.06981741636992 306.6840204373002H369.7296618744731Q371.2625055909157 319.99724624305964 371.96251779794693 333.87754288315773Q372.6625300049782 347.7578395232558 372.6625300049782 362.4495443329215Q372.6625300049782 437.03674353659153 354.32007525488734 468.76715833321214Q335.9776205047965 500.49757312983274 297.401123046875 500.49757312983274Q266.62603778392076 500.49757312983274 244.12634295970201 482.4411664418876Q221.62664813548326 464.3847597539425 208.2039185501635 421.92832497134805Q194.78118896484375 379.4718901887536 191.06981741636992 306.6840204373002Z" transform="translate(75.965 109) scale(0.103000 -0.103000)" fill="#24483B"/><path d="M302.35668283700943 -14Q222.35927352309227 -14 163.23681319132447 16.811408169567585Q104.11435285955667 47.62281633913517 71.724100779742 105.95643110200763Q39.33384869992733 164.29004586488008 39.33384869992733 246.37875016778708Q39.33384869992733 337.4446137174964 73.82261142879725 400.5568404570222Q108.31137415766716 463.669067196548 171.21098152920604 496.67053213343024Q234.11058890074492 529.6719970703125 319.0224949494004 529.6719970703125Q396.6671958863735 529.6719970703125 454.6232709810138 499.85988019406796Q512.579346075654 470.0477633178234 544.8238189928234 412.3027037642896Q577.0682919099927 354.5576442107558 577.0682919099927 270.3588392883539Q577.0682919099927 182.38165301829576 543.5230749696493 118.6587390229106Q509.97785802930593 54.935825027525425 448.2996251694858 20.467912513762712Q386.6213923096657 -14 302.35668283700943 -14ZM317.98106568306684 18.210990615189075Q353.55626779794693 18.210990615189075 376.5665997453034 40.32463476806879Q399.57693169265985 62.438278920948505 410.72098826617 113.09473942220211Q421.8650448396802 163.75119992345572 421.8650448396802 248.691853903234Q421.8650448396802 318.4677059724927 413.843034863472 366.2791448459029Q405.8210248872638 414.09058371931314 390.16553442552686 443.05151120200753Q374.51004396378994 472.0124386847019 352.63253131881356 484.9359515234828Q330.7550186738372 497.8594643622637 302.9554581269622 497.8594643622637Q267.4887221008539 497.8594643622637 243.07836573943496 476.922174397856Q218.668009378016 455.9848844334483 206.30256478115916 407.67198062315583Q193.93712018430233 359.35907681286335 193.93712018430233 276.57728392630816Q193.93712018430233 182.41513336449862 209.21625776216388 125.47015297040343Q224.49539534002542 68.52517257630825 252.2842917405069 43.36808159574866Q280.07318814098835 18.210990615189075 317.98106568306684 18.210990615189075Z" transform="translate(130.609 109) scale(0.103000 -0.103000)" fill="#24483B"/><path d="M50.50936558842659 0V24.39724288880825L98.3774483948946 29.00482415407896Q117.3774483948946 30.613971926271915 123.3774483948946 41.07046406343579Q129.3774483948946 51.52695620059967 129.3774483948946 81.26141264289618V649.5448415502906Q129.3774483948946 674.3677311316133 122.92172599956393 684.2677080221474Q116.46600360423326 694.1676849126816 95.35448557138443 695.6989891454577L50.50936558842659 698.9615217596292V723.3587646484375H336.32859268784523Q390.46600341796875 723.3587646484375 434.51186802983284 715.7801648788154Q478.55773264169693 708.2015651091933 512.3906386978924 692.6229653395712Q546.2235447540879 677.0443655699492 569.0335490219295 653.3443533629179Q591.8435532897711 629.6443411558867 603.4535453505814 596.9457938857377Q615.0635374113917 564.2472466155887 615.0635374113917 521.761596865952Q615.0635374113917 474.8086417391896 601.1649168990552 438.73297184333205Q587.2662963867188 402.6573019474745 562.8790962509811 376.45884273573756Q538.4918961152434 350.26038352400064 506.1704104356468 333.8169393055141Q473.8489247560501 317.37349508702755 436.61465141922235 309.38500352203846Q399.3803780823946 301.39651195704937 360.93186435848475 301.39651195704937Q333.79750557243824 301.39651195704937 312.73343915864825 302.74077735468745Q291.66937274485826 304.08504275232553 282.46929950267076 305.7735735476017V79.08125028014183Q282.46929950267076 53.215609066188335 289.12497306987643 41.55910472199321Q295.7806466370821 29.90260037779808 321.60378035902977 28.348371340334417L382.97119783610106 24.39724288880825V0ZM325.4851818755269 332.8962120935321Q391.3072169646621 332.8962120935321 423.50515388324857 378.7060234248638Q455.70309080183506 424.51583475619555 455.70309080183506 515.7354600280523Q455.70309080183506 581.514119900763 441.83769372850657 620.4477139301598Q427.97229665517807 659.3813079595566 398.79567451775074 676.5072643011808Q369.6190523803234 693.6332206428051 322.7083400115371 693.6332206428051H282.46929950267076V336.71408812243203Q289.53489188849926 334.78469406068325 301.0445421524346 333.84045307710767Q312.5541924163699 332.8962120935321 325.4851818755269 332.8962120935321Z" transform="translate(211.881 109) scale(0.103000 -0.103000)" fill="#24483B"/><path d="M288.17028146982193 -14Q210.95294208079576 -14 155.00990139320493 16.720652293413877Q99.06686070561409 47.441304586827755 69.20035470277071 105.91920655220747Q39.33384869992733 164.39710851758718 39.33384869992733 247.09170220047235Q39.33384869992733 337.9390801116824 73.97916329652071 400.7948404327035Q108.62447789311409 463.6506007537246 168.9133980087936 496.66129891201854Q229.2023181244731 529.6719970703125 305.86671282351017 529.6719970703125Q368.73284231871367 529.6719970703125 415.02099269255996 506.96050345152617Q461.30914306640625 484.24900983273983 486.79789228364825 441.8824768066406Q512.2866415008903 399.5159437805414 512.2866415008903 341.517212100327Q512.2866415008903 325.7478235140443 511.255350779742 310.0363876223564Q510.22406005859375 294.32495173066854 507.60576712340117 277.66694512963295H190.77977155148983Q190.22107613831758 212.29069060087204 207.58735151216388 168.67886040359735Q224.95362688601017 125.06703020632267 258.6458097733557 103.48394756764174Q292.3379926607013 81.9008649289608 339.2112502232194 81.9008649289608Q381.80976739525795 81.9008649289608 419.7563786394894 94.8321190290153Q457.7029898837209 107.7633731290698 498.6467154696584 142.7067325040698L516.1934678405523 126.01184137910604Q480.06232406944036 58.36887663602829 422.296932913363 22.184438318014145Q364.5315417572856 -14 288.17028146982193 -14ZM191.06981741636992 306.6840204373002H369.7296618744731Q371.2625055909157 319.99724624305964 371.96251779794693 333.87754288315773Q372.6625300049782 347.7578395232558 372.6625300049782 362.4495443329215Q372.6625300049782 437.03674353659153 354.32007525488734 468.76715833321214Q335.9776205047965 500.49757312983274 297.401123046875 500.49757312983274Q266.62603778392076 500.49757312983274 244.12634295970201 482.4411664418876Q221.62664813548326 464.3847597539425 208.2039185501635 421.92832497134805Q194.78118896484375 379.4718901887536 191.06981741636992 306.6840204373002Z" transform="translate(276.104 109) scale(0.103000 -0.103000)" fill="#24483B"/><path d="M235.62318916618824 -14Q192.03057181090117 -14 160.3440585769713 0.89771518856287Q128.65754534304142 15.79543037712574 111.90242179110646 49.02753007039428Q95.1472982391715 82.25962976366282 95.1472982391715 136.15131276845932V484.66252413392067H25.707804299890995V508.58950474858284Q70.02130126953125 513.143798828125 95.61079581454396 530.1965739242733Q121.20029035955667 547.2493490204215 134.58965062722564 581.6791586838663Q147.9790108948946 616.108968347311 154.8035620301962 670.9500532075763L228.710489846766 681.1945396363735L240.32758248597383 674.1287301331758V515.6719970703125H379.20936419069767V484.66252413392067H240.32758248597383V155.4146588742733Q240.32758248597383 112.29732209444046 254.18322772532701 89.63855604827404Q268.0388729646802 66.97979000210762 302.35012505203485 66.97979000210762Q326.15156427025795 66.97979000210762 349.0643924623728 76.5935087017715Q371.9772206544876 86.20722740143538 391.37565153837204 105.32468625158072L405.2673271819949 86.98848532140255Q372.8885360136628 39.45998153090477 333.08058984205127 12.729990765452385Q293.2726436704397 -14 235.62318916618824 -14Z" transform="translate(330.748 109) scale(0.103000 -0.103000)" fill="#24483B"/><path d="M60.291409231722355 -15.557346023619175 45.335605300962925 173.9242489412427 73.86114408820868 176.38842130452394Q89.75128760933876 118.07378470152617 112.95434477180243 83.46147973462939Q136.1574019342661 48.84917476773262 167.3406702876091 33.511724807322025Q198.5239386409521 18.17427484691143 237.80047570168972 18.17427484691143Q284.7406340390444 18.17427484691143 312.3481849730015 42.258767910301685Q339.9557359069586 66.34326097369194 339.9557359069586 110.1125348508358Q339.9557359069586 139.65740929543972 324.4282361678779 156.29546070843935Q308.90073642879725 172.93351212143898 281.553487110883 183.03341316059232Q254.20623779296875 193.13331419974566 218.30273456126451 202.97750505059958Q183.05956956744194 213.26771398633718 152.49449579417706 225.61209493130445Q121.92942202091217 237.95647587627172 99.01944915577769 255.87867986038327Q76.10947629064322 273.8008838444948 63.5102504119277 301.00171983987093Q50.911024533212185 328.20255583524704 50.911024533212185 368.0041571930051Q50.911024533212185 416.4014418274164 73.69899180158973 452.76874459534883Q96.48695906996727 489.13604736328125 138.86435984820127 509.4040222167969Q181.24176062643528 529.6719970703125 239.66653148829937 529.6719970703125Q280.95957431942225 529.6719970703125 312.4367810897529 518.8820327408612Q343.9139878600836 508.09206841140985 368.49759279191494 491.6446058899164L380.790649600327 529.6719970703125H403.3253302425146L416.28267365694046 363.96324323117733L386.57697250694036 366.16021048277617Q366.01492696255445 434.4736197665334 331.70185723900795 467.460507504642Q297.38878751546144 500.44739524275064 243.84080708026886 500.44739524275064Q200.611979290843 500.44739524275064 176.15180803835392 481.20942927896976Q151.69163678586483 461.9714633151889 151.69163678586483 425.74128613620996Q151.69163678586483 396.7964823246002 167.57560555264354 379.88057516515255Q183.45957431942225 362.9646680057049 211.22979736328125 352.6196598894894Q239.00002040714025 342.27465177327394 274.038167566061 331.43036587536335Q310.0979281589389 320.80889892578125 340.38352516666055 307.90885401144624Q370.6691221743822 295.0088090971112 393.8691409043968 276.57517122477293Q417.06915963441133 258.14153335243464 429.7141890898347 230.5506283827126Q442.35921854525805 202.95972341299057 442.35921854525805 163.0450915619731Q442.35921854525805 107.75467948615551 416.54681000486016 68.16595468297601Q390.7344014644623 28.577229879796505 345.0211242213845 7.2886149398982525Q299.30784697830677 -14 239.21748112142086 -14Q198.99903648346663 -14 162.062197573483 -3.1877475418150425Q125.12535866349936 7.624504916369915 96.43071093410254 28.586208663880825L83.71767783164978 -15.557346023619175Z" transform="translate(370.663 109) scale(0.103000 -0.103000)" fill="#24483B"/><path d="M331.577880859375 -8.62646484375Q299.566162109375 -8.62646484375 279.933837890625 6.566162109375Q260.301513671875 21.7587890625 248.422119140625 54.457275390625L46.313232421875 621.651611328125Q32.807373046875 660.2294921875 51.439697265625 686.927978515625Q70.072021484375 713.62646484375 115.529296875 713.62646484375Q147.854248046875 713.62646484375 165.67333984375 698.62060546875Q183.492431640625 683.61474609375 194.05859375 651.60302734375L358.710205078125 160.515869140625H315.577880859375L489.795654296875 651.2294921875Q501.675048828125 683.2412109375 519.494140625 698.433837890625Q537.313232421875 713.62646484375 565.698486328125 713.62646484375Q594.083740234375 713.62646484375 611.216064453125 698.433837890625Q628.348388671875 683.2412109375 639.601318359375 650.2294921875L805.939697265625 160.515869140625H768.7470703125L936.7119140625 651.60302734375Q947.278076171875 682.927978515625 964.9405517578125 698.2772216796875Q982.60302734375 713.62646484375 1013.927978515625 713.62646484375Q1053.13232421875 713.62646484375 1071.1080322265625 686.927978515625Q1089.083740234375 660.2294921875 1075.2646484375 621.651611328125L871.468994140625 53.457275390625Q859.90283203125 21.7587890625 840.7705078125 6.566162109375Q821.63818359375 -8.62646484375 789.313232421875 -8.62646484375Q757.301513671875 -8.62646484375 738.0125732421875 6.566162109375Q718.7236328125 21.7587890625 707.157470703125 54.457275390625L549.445556640625 501.27978515625H573.38525390625L413.046875 53.457275390625Q401.16748046875 21.7587890625 382.53515625 6.566162109375Q363.90283203125 -8.62646484375 331.577880859375 -8.62646484375Z" transform="translate(127.468 166) scale(0.028000 -0.028000)" fill="#24483B"/><path d="M398.324951171875 -10.62646484375Q294.13232421875 -10.62646484375 215.439697265625 34.686767578125Q136.7470703125 80 93.3375244140625 161.813232421875Q49.927978515625 243.62646484375 49.927978515625 353Q49.927978515625 435.686767578125 74.7110595703125 502.3433837890625Q99.494140625 569 145.4036865234375 616.6566162109375Q191.313232421875 664.313232421875 255.5360107421875 689.9698486328125Q319.7587890625 715.62646484375 398.324951171875 715.62646484375Q503.517578125 715.62646484375 581.710205078125 670.813232421875Q659.90283203125 626 703.3123779296875 544.686767578125Q746.721923828125 463.37353515625 746.721923828125 353.686767578125Q746.721923828125 271 721.9388427734375 204.0Q697.15576171875 137 651.2462158203125 88.8433837890625Q605.336669921875 40.686767578125 541.1138916015625 15.0301513671875Q476.89111328125 -10.62646484375 398.324951171875 -10.62646484375ZM398.324951171875 120.986572265625Q457.37353515625 120.986572265625 498.801513671875 148.6373291015625Q540.2294921875 176.2880859375 562.536865234375 228.4329833984375Q584.84423828125 280.577880859375 584.84423828125 353Q584.84423828125 462.663330078125 535.8861083984375 523.33837890625Q486.927978515625 584.013427734375 398.324951171875 584.013427734375Q340.2763671875 584.013427734375 298.348388671875 556.8626708984375Q256.42041015625 529.7119140625 234.113037109375 478.0670166015625Q211.8056640625 426.422119140625 211.8056640625 353Q211.8056640625 243.710205078125 261.107177734375 182.348388671875Q310.40869140625 120.986572265625 398.324951171875 120.986572265625Z" transform="translate(171.828 166) scale(0.028000 -0.028000)" fill="#24483B"/><path d="M148.517578125 -8.62646484375Q110.939697265625 -8.62646484375 90.8375244140625 12.319091796875Q70.7353515625 33.2646484375 70.7353515625 70.842529296875V626.2177734375Q70.7353515625 664.795654296875 91.3375244140625 684.8978271484375Q111.939697265625 705 149.517578125 705H393.0234375Q510.90283203125 705 574.9991455078125 647.933837890625Q639.095458984375 590.86767578125 639.095458984375 489.301513671875Q639.095458984375 423.048583984375 610.1256103515625 374.9522705078125Q581.15576171875 326.85595703125 526.3726806640625 301.0728759765625Q471.589599609375 275.289794921875 393.0234375 275.289794921875L401.39697265625 291.542724609375H441.91455078125Q483.854248046875 291.542724609375 515.4505615234375 271.3861083984375Q547.046875 251.2294921875 569.733642578125 208.85595703125L632.204345703125 93.66162109375Q646.39697265625 68.589599609375 645.2403564453125 44.9874267578125Q644.083740234375 21.38525390625 627.1080322265625 6.37939453125Q610.13232421875 -8.62646484375 576.86767578125 -8.62646484375Q544.2294921875 -8.62646484375 523.470703125 5.066162109375Q502.7119140625 18.7587890625 486.892822265625 47.7705078125L390.59130859375 224.686767578125Q375.7236328125 252.7353515625 354.1993408203125 262.669189453125Q332.675048828125 272.60302734375 301.566162109375 272.60302734375H225.986572265625V70.842529296875Q225.986572265625 33.2646484375 206.541015625 12.319091796875Q187.095458984375 -8.62646484375 148.517578125 -8.62646484375ZM225.986572265625 384.830810546875H365.38525390625Q426.554443359375 384.830810546875 458.295654296875 409.7286376953125Q490.036865234375 434.62646484375 490.036865234375 485.048583984375Q490.036865234375 534.470703125 458.295654296875 559.3685302734375Q426.554443359375 584.266357421875 365.38525390625 584.266357421875H225.986572265625Z" transform="translate(207.116 166) scale(0.028000 -0.028000)" fill="#24483B"/><path d="M149.517578125 0Q111.939697265625 0 91.3375244140625 20.945556640625Q70.7353515625 41.89111328125 70.7353515625 79.468994140625V628.278076171875Q70.7353515625 666.85595703125 90.8375244140625 686.9581298828125Q110.939697265625 707.060302734375 148.517578125 707.060302734375Q186.095458984375 707.060302734375 206.041015625 686.9581298828125Q225.986572265625 666.85595703125 225.986572265625 628.278076171875V130.613037109375H493.7470703125Q526.072021484375 130.613037109375 543.39111328125 113.7939453125Q560.710205078125 96.974853515625 560.710205078125 65.64990234375Q560.710205078125 34.324951171875 543.39111328125 17.1624755859375Q526.072021484375 0 493.7470703125 0Z" transform="translate(239.604 166) scale(0.028000 -0.028000)" fill="#24483B"/><path d="M152.204345703125 0Q112.62646484375 0 91.680908203125 20.945556640625Q70.7353515625 41.89111328125 70.7353515625 81.468994140625V623.531005859375Q70.7353515625 663.10888671875 91.680908203125 684.054443359375Q112.62646484375 705 152.204345703125 705H347.14404296875Q527.589599609375 705 626.1256103515625 613.5301513671875Q724.66162109375 522.060302734375 724.66162109375 353Q724.66162109375 268.313232421875 699.53515625 202.813232421875Q674.40869140625 137.313232421875 625.968994140625 92.1566162109375Q577.529296875 47 507.6197509765625 23.5Q437.710205078125 0 347.14404296875 0ZM225.986572265625 127.2998046875H337.577880859375Q394.87939453125 127.2998046875 436.933837890625 141.3902587890625Q478.98828125 155.480712890625 507.1390380859375 183.3182373046875Q535.289794921875 211.15576171875 549.036865234375 253.583740234375Q562.783935546875 296.01171875 562.783935546875 353Q562.783935546875 466.9765625 506.6390380859375 522.33837890625Q450.494140625 577.7001953125 337.577880859375 577.7001953125H225.986572265625Z" transform="translate(268.648 166) scale(0.028000 -0.028000)" fill="#24483B"/></svg>